# xmcd CD database file
#
# Track frame offsets:
#	150
#	38532
#	56302
#	71105
#	99276
#	115536
#	126515
#	152355
#	171709
#	200718
#	214200
#	233100
#	258493
#	271838
#	286379
#
# Disc length: 4385 seconds
#
# Revision: 0
# Processed by: cddbd v1.5.2PL0 Copyright (c) Steve Scherf et al.
# Submitted via: CDex 1.70beta2
#
DISCID=d9111f0f
DTITLE=SoundShift - First
DYEAR=1900
DGENRE=Jazz
TTITLE0=True L. Sen
TTITLE1=Garlic
TTITLE2=Too Funky
TTITLE3=The Trans-Love-Express - Egocentric Molecules
TTITLE4=Pamphlet against Miss Diatonic
TTITLE5=Light Jungle
TTITLE6=Freak/Mystique - The Nard-Memorial-Mix
TTITLE7=Oye como va
TTITLE8=If You Love Somebody, Set Them Free - She's too Good for Me
TTITLE9=Armenian Rapier
TTITLE10=World Machine
TTITLE11=Paradise - Smooth Operator
TTITLE12=Shnousse
TTITLE13=Opposites Attract
TTITLE14=Lazy - Burn // Hocus Pocus
EXTD=
EXTT0=
EXTT1=
EXTT2=
EXTT3=
EXTT4=
EXTT5=
EXTT6=
EXTT7=
EXTT8=
EXTT9=
EXTT10=
EXTT11=
EXTT12=
EXTT13=
EXTT14=
PLAYORDER=
